<?xml version="1.0" encoding="utf-8"?>
<!-- Generator: Adobe Illustrator 26.4.1, SVG Export Plug-In . SVG Version: 6.00 Build 0)  -->
<svg version="1.1" id="Layer_1" xmlns="http://www.w3.org/2000/svg" xmlns:xlink="http://www.w3.org/1999/xlink" x="0px" y="0px"
	 viewBox="0 0 100 100" style="enable-background:new 0 0 100 100;" xml:space="preserve">
<style type="text/css">
	.st0{fill-rule:evenodd;clip-rule:evenodd;}
</style>
<g>
	<path class="st0" d="M10.1,5.9c-1.2-1.2-3.1-1.2-4.2,0c-1.2,1.2-1.2,3.1,0,4.2l4.2,4.2C6.9,18.3,5,23.5,5,29v42
		c0,13.3,10.7,24,24,24h42c5.5,0,10.7-1.9,14.7-5l4.2,4.2c1.2,1.2,3.1,1.2,4.2,0c1.2-1.2,1.2-3.1,0-4.2L10.1,5.9z M81.4,85.7
		L14.3,18.6C12.2,21.5,11,25.1,11,29v42c0,0.6,0,1.1,0.1,1.7l6.8-10.9c7.5-12.1,24.6-13.3,33.8-2.4l24.4,28.9
		C78.1,87.7,79.8,86.8,81.4,85.7z"/>
	<path d="M89,71c0,1.9-0.3,3.7-0.8,5.4l4.6,4.6C94.2,78,95,74.6,95,71V29C95,15.7,84.3,5,71,5H29c-3.6,0-7,0.8-10.1,2.2l4.6,4.6
		c1.7-0.5,3.5-0.8,5.4-0.8h42c9.9,0,18,8.1,18,18V71z"/>
	<path d="M66.5,27.5c-5,0-9,4-9,9c0,5,4,9,9,9s9-4,9-9C75.5,31.5,71.5,27.5,66.5,27.5z"/>
</g>
</svg>
